<?xml version="1.0" encoding="UTF-8"?>
<svg width="150px" height="1937px" viewBox="0 0 150 1937" version="1.1" xmlns="http://www.w3.org/2000/svg" xmlns:xlink="http://www.w3.org/1999/xlink">
    <!-- Generator: Sketch 50.2 (55047) - http://www.bohemiancoding.com/sketch -->
    <title>A Gauche de la Lune</title>
    <desc>Created with Sketch.</desc>
    <defs></defs>
    <g id="Page-1" stroke="none" stroke-width="1" fill="none" fill-rule="evenodd">
        <path d="M-784.9,1039.5 L-795.7,1006.3 L-848.1,1006.3 L-858.9,1039.5 L-892.7,1039.5 L-841.1,897.5 L-802.5,897.5 L-750.9,1039.5 L-784.9,1039.5 Z M-840.3,982.5 L-803.5,982.5 L-816.5,942.9 C-818.5,936.7 -820.3,931.3 -821.7,922.9 L-822.1,922.9 C-823.5,931.3 -825.3,936.7 -827.3,942.9 L-840.3,982.5 Z M-639.083333,1042.9 C-678.283333,1042.9 -702.083333,1013.7 -702.083333,968.7 C-702.083333,924.1 -675.283333,894.1 -631.683333,894.1 C-594.483333,894.1 -574.283333,914.1 -569.883333,937.7 L-603.283333,943.9 C-605.683333,930.5 -614.483333,919.5 -631.883333,919.5 C-654.483333,919.5 -667.483333,938.3 -667.483333,968.3 C-667.483333,998.1 -655.283333,1016.9 -631.483333,1016.9 C-609.883333,1016.9 -600.083333,1000.1 -600.083333,987.7 L-600.083333,984.7 L-635.083333,984.7 L-635.083333,960.5 L-569.283333,960.5 L-569.283333,1039.5 L-593.283333,1039.5 L-594.683333,1018.7 C-601.883333,1033.9 -617.683333,1042.9 -639.083333,1042.9 Z M-519.375,1041.9 C-539.975,1041.9 -553.775,1030.1 -553.775,1012.3 C-553.775,1002.9 -550.375,995.5 -543.575,990.7 C-536.975,986.1 -527.375,982.9 -512.175,980.9 L-487.975,977.5 L-487.975,974.1 C-487.975,962.7 -492.775,957.7 -502.775,957.7 C-512.575,957.7 -518.175,962.9 -518.775,972.5 L-550.575,972.5 C-548.975,950.3 -530.975,937.1 -502.575,937.1 C-470.375,937.1 -455.975,949.7 -455.975,978.5 L-455.975,1011.7 C-455.975,1023.5 -454.975,1033.3 -453.175,1039.5 L-484.375,1039.5 C-485.375,1034.7 -485.775,1029.3 -485.975,1023.7 C-490.975,1034.9 -503.775,1041.9 -519.375,1041.9 Z M-507.375,1021.5 C-495.175,1021.5 -486.975,1013.3 -486.975,1001.3 L-486.975,993.3 L-504.175,996.1 C-515.975,998.3 -521.375,1002.5 -521.375,1009.9 C-521.375,1016.9 -515.775,1021.5 -507.375,1021.5 Z M-398.866667,1041.9 C-422.466667,1041.9 -432.466667,1027.7 -432.466667,1004.3 L-432.466667,939.5 L-400.466667,939.5 L-400.466667,998.7 C-400.466667,1011.1 -395.466667,1017.5 -386.066667,1017.5 C-375.666667,1017.5 -369.266667,1009.3 -369.266667,996.7 L-369.266667,939.5 L-337.066667,939.5 L-337.066667,1039.5 L-367.666667,1039.5 L-367.666667,1021.3 C-372.466667,1033.9 -384.266667,1041.9 -398.866667,1041.9 Z M-265.158334,1041.9 C-296.758333,1041.9 -317.758333,1021.3 -317.758333,989.5 C-317.758333,956.9 -297.558334,937.1 -264.758333,937.1 C-238.558334,937.1 -221.158334,949.9 -217.358333,972.5 L-247.558334,978.7 C-249.358333,966.9 -255.758333,960.7 -265.558334,960.7 C-277.758333,960.7 -285.158334,971.1 -285.158334,988.5 C-285.158334,1007.3 -277.958333,1018.1 -265.358333,1018.1 C-255.358333,1018.1 -249.158334,1011.5 -247.358333,999.5 L-217.358333,1006.1 C-220.958333,1028.1 -239.558334,1041.9 -265.158334,1041.9 Z M-197.65,1039.5 L-197.65,894.5 L-165.45,894.5 L-165.45,957.3 C-159.25,943.5 -148.65,936.7 -133.65,936.7 C-112.05,936.7 -101.05,950.5 -101.05,977.3 L-101.05,1039.5 L-133.05,1039.5 L-133.05,980.5 C-133.05,967.7 -138.05,961.3 -147.85,961.3 C-159.25,961.3 -165.45,969.9 -165.45,985.7 L-165.45,1039.5 L-197.65,1039.5 Z M16.4583331,987.1 L16.4583331,996.7 L-52.9416669,996.7 C-52.7416669,1010.3 -43.3416669,1018.9 -29.9416669,1018.9 C-20.1416669,1018.9 -12.7416669,1014.1 -8.1416669,1004.9 L15.4583331,1015.7 C7.4583331,1032.1 -9.5416669,1041.9 -30.3416669,1041.9 C-63.3416669,1041.9 -83.3416669,1022.9 -83.3416669,990.5 C-83.3416669,957.7 -63.7416669,937.1 -32.5416669,937.1 C-1.1416669,937.1 16.4583331,955.3 16.4583331,987.1 Z M-14.5416669,978.7 L-14.5416669,977.9 C-14.5416669,963.7 -21.1416669,956.1 -33.1416669,956.1 C-45.5416669,956.1 -52.5416669,964.5 -52.9416669,978.7 L-14.5416669,978.7 Z M119.275,1041.9 C95.2749997,1041.9 79.2749997,1021.1 79.2749997,989.9 C79.2749997,958.1 96.0749997,937.1 121.075,937.1 C134.275,937.1 144.275,942.5 149.275,952.9 L149.275,894.5 L181.275,894.5 L181.275,1039.5 L150.875,1039.5 L150.875,1022.3 C145.875,1034.3 133.875,1041.9 119.275,1041.9 Z M131.875,1019.7 C142.875,1019.7 149.675,1009.9 149.675,994.3 L149.675,985.7 C149.675,968.7 142.875,959.3 131.475,959.3 C119.275,959.3 112.275,970.1 112.275,989.3 C112.275,1008.1 119.675,1019.7 131.875,1019.7 Z M301.583333,987.1 L301.583333,996.7 L232.183333,996.7 C232.383333,1010.3 241.783333,1018.9 255.183333,1018.9 C264.983333,1018.9 272.383333,1014.1 276.983333,1004.9 L300.583333,1015.7 C292.583333,1032.1 275.583333,1041.9 254.783333,1041.9 C221.783333,1041.9 201.783333,1022.9 201.783333,990.5 C201.783333,957.7 221.383333,937.1 252.583333,937.1 C283.983333,937.1 301.583333,955.3 301.583333,987.1 Z M270.583333,978.7 L270.583333,977.9 C270.583333,963.7 263.983333,956.1 251.983333,956.1 C239.583333,956.1 232.583333,964.5 232.183333,978.7 L270.583333,978.7 Z M404.6,894.5 L404.6,1039.5 L372.4,1039.5 L372.4,894.5 L404.6,894.5 Z M458.708333,1041.9 C438.108333,1041.9 424.308333,1030.1 424.308333,1012.3 C424.308333,1002.9 427.708333,995.5 434.508333,990.7 C441.108333,986.1 450.708333,982.9 465.908333,980.9 L490.108333,977.5 L490.108333,974.1 C490.108333,962.7 485.308333,957.7 475.308333,957.7 C465.508333,957.7 459.908333,962.9 459.308333,972.5 L427.508333,972.5 C429.108333,950.3 447.108333,937.1 475.508333,937.1 C507.708333,937.1 522.108333,949.7 522.108333,978.5 L522.108333,1011.7 C522.108333,1023.5 523.108333,1033.3 524.908333,1039.5 L493.708333,1039.5 C492.708333,1034.7 492.308333,1029.3 492.108333,1023.7 C487.108333,1034.9 474.308333,1041.9 458.708333,1041.9 Z M470.708333,1021.5 C482.908333,1021.5 491.108333,1013.3 491.108333,1001.3 L491.108333,993.3 L473.908333,996.1 C462.108333,998.3 456.708333,1002.5 456.708333,1009.9 C456.708333,1016.9 462.308333,1021.5 470.708333,1021.5 Z M598.124999,1039.5 L598.124999,897.5 L631.925,897.5 L631.925,1012.1 L689.524999,1012.1 L689.524999,1039.5 L598.124999,1039.5 Z M740.033333,1041.9 C716.433333,1041.9 706.433333,1027.7 706.433333,1004.3 L706.433333,939.5 L738.433333,939.5 L738.433333,998.7 C738.433333,1011.1 743.433333,1017.5 752.833333,1017.5 C763.233333,1017.5 769.633333,1009.3 769.633333,996.7 L769.633333,939.5 L801.833333,939.5 L801.833333,1039.5 L771.233333,1039.5 L771.233333,1021.3 C766.433333,1033.9 754.633333,1041.9 740.033333,1041.9 Z M828.741666,1039.5 L828.741666,939.5 L859.541666,939.5 L859.541666,958.7 C866.541666,944.1 877.541666,936.9 892.741666,936.9 C914.341666,936.9 925.341666,950.7 925.341666,977.5 L925.341666,1039.5 L893.341666,1039.5 L893.341666,981.9 C893.341666,968.1 888.541666,961.5 878.341666,961.5 C867.141666,961.5 860.941666,970.1 860.941666,985.5 L860.941666,1039.5 L828.741666,1039.5 Z M1042.85,987.1 L1042.85,996.7 L973.449999,996.7 C973.649999,1010.3 983.049999,1018.9 996.449999,1018.9 C1006.25,1018.9 1013.65,1014.1 1018.25,1004.9 L1041.85,1015.7 C1033.85,1032.1 1016.85,1041.9 996.049999,1041.9 C963.049999,1041.9 943.049999,1022.9 943.049999,990.5 C943.049999,957.7 962.649999,937.1 993.849999,937.1 C1025.25,937.1 1042.85,955.3 1042.85,987.1 Z M1011.85,978.7 L1011.85,977.9 C1011.85,963.7 1005.25,956.1 993.249999,956.1 C980.849999,956.1 973.849999,964.5 973.449999,978.7 L1011.85,978.7 Z" id="A-Gauche-de-la-Lune" fill="#000000" transform="translate(75.075000, 968.500000) rotate(-90.000000) translate(-75.075000, -968.500000) "></path>
    </g>
</svg>